<svg xmlns="http://www.w3.org/2000/svg" width="64" height="64" viewBox="0 0 64 64">
    <defs>
        <linearGradient id="bg" x1="0" y1="0" x2="1" y2="1">
            <stop offset="0" stop-color="#FF8FC8"/>
            <stop offset="0.55" stop-color="#B49AFF"/>
            <stop offset="1" stop-color="#76C6FF"/>
        </linearGradient>
    </defs>
    <rect width="64" height="64" rx="18" fill="url(#bg)"/>
    <!-- 對話泡泡 -->
    <path d="M16 18 h32 a6 6 0 0 1 6 6 v16 a6 6 0 0 1 -6 6 H30 l-9 8 v-8 h-5 a6 6 0 0 1 -6 -6 V24 a6 6 0 0 1 6 -6 z"
          fill="#FFFDFB" opacity="0.95"/>
    <!-- 三條聲波點 -->
    <circle cx="24" cy="32" r="3.4" fill="#FF6BB5"/>
    <circle cx="32" cy="32" r="3.4" fill="#9B78FF"/>
    <circle cx="40" cy="32" r="3.4" fill="#4FB0FF"/>
    <!-- 小星星 -->
    <path d="M50 12 l1.6 3.4 3.7 .5 -2.7 2.6 .7 3.7 -3.3 -1.8 -3.3 1.8 .7 -3.7 -2.7 -2.6 3.7 -.5 z" fill="#FFD45E"/>
</svg>
